<svg width="71" height="71" viewBox="0 0 71 71" fill="none" xmlns="http://www.w3.org/2000/svg">
<g clip-path="url(#clip0_2456_141)">
<path fill-rule="evenodd" clip-rule="evenodd" d="M-483 10C-483 4.47715 -478.523 0 -473 0H1427C1432.52 0 1437 4.47715 1437 10V94.99C1437 94.9955 1437 95 1436.99 95C1436.98 95 1436.98 94.9957 1436.98 94.9903C1436.45 81.6513 1425.47 71 1412 71H1153.52C1148.46 71 1144.3 67.1673 1142.81 62.3261C1136.54 41.8723 1117.51 27 1095 27H68C45.4919 27 26.4576 41.8723 20.1878 62.3261C18.7038 67.1673 14.5445 71 9.48096 71H-458C-471.469 71 -482.45 81.6513 -482.98 94.9903C-482.98 94.9957 -482.985 95 -482.99 95C-482.996 95 -483 94.9955 -483 94.99V10Z" fill="#7027E2"/>
</g>
<defs>
<clipPath id="clip0_2456_141">
<rect width="71" height="71" fill="white"/>
</clipPath>
</defs>
</svg>
