<svg width="71" height="71" viewBox="0 0 71 71" fill="none" xmlns="http://www.w3.org/2000/svg">
<g clip-path="url(#clip0_2456_141)">
<path fill-rule="evenodd" clip-rule="evenodd" d="M554 10C554 4.47715 549.523 0 544 0H-1356C-1361.52 0 -1366 4.47715 -1366 10V94.99C-1366 94.9955 -1366 95 -1365.99 95C-1365.98 95 -1365.98 94.9957 -1365.98 94.9903C-1365.45 81.6513 -1354.47 71 -1341 71H-1082.52C-1077.46 71 -1073.3 67.1673 -1071.81 62.3261C-1065.54 41.8723 -1046.51 27 -1024 27H3C25.5081 27 44.5424 41.8723 50.8122 62.3261C52.2962 67.1673 56.4555 71 61.519 71H529C542.469 71 553.45 81.6513 553.98 94.9903C553.98 94.9957 553.985 95 553.99 95C553.996 95 554 94.9955 554 94.99V10Z" fill="#7027E2"/>
</g>
<defs>
<clipPath id="clip0_2456_141">
<rect width="71" height="71" fill="white" transform="matrix(-1 0 0 1 71 0)"/>
</clipPath>
</defs>
</svg>
