<svg width="24" height="24" viewBox="0 0 24 24" fill="none" xmlns="http://www.w3.org/2000/svg">
<g clip-path="url(#clip0_2456_141)">
<path fill-rule="evenodd" clip-rule="evenodd" d="M24 -61C24 -66.5228 19.5229 -71 14 -71H-1886C-1891.52 -71 -1896 -66.5228 -1896 -61V23.99C-1896 23.9955 -1896 24 -1895.99 24C-1895.98 24 -1895.98 23.9957 -1895.98 23.9903C-1895.45 10.6513 -1884.47 0 -1871 0H-1612.52C-1607.46 0 -1603.3 -3.8327 -1601.81 -8.67391C-1595.54 -29.1277 -1576.51 -44 -1554 -44H-527C-504.492 -44 -485.458 -29.1277 -479.188 -8.6739C-477.704 -3.8327 -473.544 0 -468.481 0H-1C12.469 0 23.4502 10.6513 23.98 23.9903C23.9802 23.9957 23.9846 24 23.99 24C23.9955 24 24 23.9955 24 23.99V-61Z" fill="#7027E2"/>
</g>
<defs>
<clipPath id="clip0_2456_141">
<rect width="24" height="24" fill="white" transform="matrix(-1 0 0 1 24 0)"/>
</clipPath>
</defs>
</svg>
